<?xml version="1.0" standalone="no"?>
<!DOCTYPE svg PUBLIC "-//W3C//DTD SVG 20010904//EN"
 "http://www.w3.org/TR/2001/REC-SVG-20010904/DTD/svg10.dtd">
<svg version="1.0" xmlns="http://www.w3.org/2000/svg"
 width="1000.000000pt" height="1000.000000pt" viewBox="0 0 1000.000000 1000.000000"
 preserveAspectRatio="xMidYMid meet">
<metadata>
Created by potrace 1.11, written by Peter Selinger 2001-2013
</metadata>
<g transform="translate(0.000000,1000.000000) scale(0.100000,-0.100000)"
fill="#000000" stroke="none">
<path d="M8485 9658 c-148 -18 -271 -90 -430 -252 -203 -206 -395 -467 -1079
-1466 -142 -207 -375 -534 -409 -574 l-34 -40 -82 103 c-164 206 -167 247 -36
522 82 171 93 219 53 241 -20 10 -82 17 -185 18 l-32 0 46 108 c97 229 103
273 36 291 -46 13 -97 -8 -181 -73 -154 -118 -306 -286 -438 -482 -90 -135
-125 -168 -194 -183 -89 -19 -188 -64 -421 -189 -53 -29 -102 -52 -108 -52 -6
0 -46 24 -89 54 -139 96 -254 149 -387 176 -118 24 -146 48 -257 220 -98 151
-175 246 -295 361 -130 125 -211 179 -268 179 -94 0 -97 -65 -11 -276 30 -76
49 -134 42 -135 -6 0 -49 -1 -96 -3 -47 -1 -96 -8 -109 -15 -20 -11 -23 -19
-19 -55 3 -24 30 -91 60 -152 112 -221 133 -305 100 -392 -21 -53 -150 -225
-178 -236 -8 -3 -25 -1 -37 5 -53 28 -101 92 -462 624 -610 899 -866 1245
-1075 1453 -186 185 -282 223 -550 219 -132 -2 -149 -4 -195 -27 -114 -57
-176 -239 -177 -515 -1 -367 101 -656 370 -1050 154 -226 337 -441 587 -690
297 -297 568 -521 920 -760 229 -155 306 -222 326 -282 15 -45 6 -118 -16
-143 -22 -24 -74 -26 -116 -4 -17 8 -62 44 -101 80 -38 35 -89 73 -111 84 -50
25 -110 26 -128 4 -24 -30 -15 -243 17 -399 9 -44 18 -91 21 -105 4 -21 -2
-29 -34 -47 -21 -11 -72 -31 -113 -43 -197 -58 -409 -216 -526 -391 -56 -85
-125 -233 -126 -272 -2 -59 51 -67 232 -37 235 39 602 23 634 -28 6 -9 -49
-83 -79 -107 -39 -31 -121 -138 -146 -190 -48 -100 -41 -114 67 -120 434 -23
529 -38 698 -106 55 -23 107 -44 114 -46 13 -6 12 -79 -3 -278 -2 -33 -7 -109
-10 -170 -3 -60 -8 -130 -10 -155 -3 -25 -7 -103 -10 -173 -3 -71 -7 -147 -10
-170 -2 -23 -7 -94 -10 -157 -3 -63 -8 -149 -11 -190 -2 -41 -7 -102 -9 -135
-3 -33 -7 -103 -11 -155 -3 -52 -9 -98 -12 -101 -4 -4 -50 -19 -102 -34 -156
-45 -278 -113 -414 -231 -120 -104 -137 -118 -191 -156 -107 -74 -182 -84
-309 -39 -97 34 -165 80 -271 186 -248 246 -426 608 -566 1155 -63 242 -84
306 -115 348 -24 31 -55 41 -80 24 -74 -49 -62 -346 28 -707 46 -186 102 -348
169 -493 22 -45 39 -84 39 -86 0 -11 137 -248 174 -301 207 -301 450 -504 671
-560 73 -19 223 -19 290 -1 102 27 253 124 370 238 48 47 143 107 181 114 42
8 77 -6 98 -39 9 -13 29 -78 46 -145 17 -68 53 -183 80 -257 28 -74 50 -140
50 -145 0 -12 -36 -12 -65 -1 -29 12 -73 -14 -82 -47 -17 -63 4 -100 129 -226
130 -131 158 -174 158 -242 0 -68 12 -98 60 -150 22 -24 42 -55 46 -71 27
-125 116 -233 298 -361 215 -153 503 -219 951 -220 324 0 516 36 727 137 203
97 356 229 432 372 22 41 61 107 88 148 45 70 48 78 46 136 -2 76 6 88 153
241 115 119 139 155 141 208 2 49 -47 91 -87 75 -29 -11 -65 -11 -65 1 0 5 22
71 50 145 27 74 63 189 80 257 32 131 48 163 85 180 57 26 130 -15 315 -172
168 -144 265 -186 431 -189 158 -3 289 46 447 167 379 288 712 891 806 1457
23 141 27 182 31 305 5 190 -11 244 -71 232 -52 -10 -91 -96 -155 -342 -102
-394 -221 -684 -380 -930 -34 -52 -64 -97 -68 -100 -3 -3 -22 -25 -41 -50
-166 -217 -406 -352 -553 -310 -62 17 -169 89 -291 195 -199 173 -277 216
-437 242 -57 9 -107 19 -110 22 -4 3 -10 74 -13 156 -4 83 -9 179 -11 215 -2
36 -7 119 -10 185 -3 66 -8 152 -10 190 -2 39 -7 117 -10 175 -12 226 -22 362
-30 445 -2 22 -7 76 -10 120 -3 44 -8 107 -11 141 l-6 61 94 40 c104 46 139
57 218 72 113 22 174 29 285 36 195 11 286 29 312 64 37 48 -1 113 -152 264
-60 59 -106 109 -104 111 2 3 72 19 154 36 169 35 226 35 445 -1 241 -39 300
-19 270 92 -71 264 -445 601 -694 625 -107 11 -108 13 -80 94 42 119 65 437
35 473 -18 22 -75 21 -126 -2 -22 -10 -72 -48 -112 -84 -92 -84 -126 -102
-186 -98 -46 3 -73 116 -43 184 27 61 60 88 257 213 251 160 595 434 878 699
161 152 232 224 378 393 118 136 141 167 138 190 -31 254 -38 505 -16 562 18
45 78 120 96 120 20 0 88 -82 121 -144 31 -60 53 -72 95 -51 93 49 188 251
241 517 33 165 33 392 0 498 -26 80 -62 157 -95 202 -66 89 -224 129 -412 106z
m-4018 -2504 c50 -24 87 -51 124 -92 128 -140 261 -405 284 -567 4 -27 9 -171
10 -320 4 -393 -11 -477 -119 -694 -133 -264 -280 -390 -466 -397 -192 -7
-328 74 -463 278 -99 149 -172 347 -193 525 -3 26 -7 61 -10 78 -6 46 -5 277
2 347 23 232 105 477 214 638 159 234 394 312 617 204z m1408 31 c28 -8 70
-28 94 -44 364 -243 505 -964 304 -1545 -85 -246 -198 -398 -352 -474 -72 -35
-80 -37 -175 -37 -97 0 -104 2 -178 39 -197 97 -372 351 -427 618 -6 29 -14
64 -16 78 -3 14 -8 50 -11 80 -3 30 -7 66 -10 80 -6 33 -5 294 1 345 13 106
17 134 30 197 74 348 315 637 565 677 55 9 110 5 175 -14z m-2475 -4667 c80
-20 227 -112 320 -199 88 -83 56 -77 -140 25 -119 62 -296 87 -410 56 -54 -14
-126 -57 -200 -120 -272 -230 -413 -278 -555 -188 l-30 19 45 -7 c107 -17 156
-11 247 32 67 32 190 123 278 206 119 111 204 164 295 183 57 12 77 11 150 -7z
m3344 7 c79 -13 168 -71 311 -200 205 -185 339 -248 479 -225 33 5 61 8 63 6
2 -2 -18 -14 -44 -27 -38 -19 -65 -23 -128 -24 -70 0 -88 4 -145 32 -38 19
-95 60 -135 97 -159 150 -305 225 -450 232 -118 6 -192 -16 -357 -106 -31 -18
-65 -30 -75 -27 -38 8 161 169 266 215 44 19 141 41 161 37 8 -2 33 -6 54 -10z"/>
<path d="M4535 6274 c-78 -40 -117 -111 -117 -210 0 -131 86 -235 196 -237
106 -2 162 66 173 207 10 125 -31 216 -110 245 -41 16 -107 13 -142 -5z m28
-95 c34 -15 54 -55 41 -77 -16 -25 -59 -27 -83 -3 -23 23 -28 76 -8 84 19 8
24 8 50 -4z"/>
<path d="M5303 6270 c-22 -10 -49 -29 -60 -43 -27 -35 -47 -134 -40 -207 11
-128 75 -194 187 -193 83 1 135 34 175 112 37 73 10 245 -48 299 -50 47 -148
62 -214 32z m65 -89 c52 -44 -1 -98 -89 -92 -27 2 -31 31 -9 66 30 49 62 58
98 26z"/>
</g>
</svg>
